  0
SECTION
  2
HEADER
  9
$ACADVER
  1
AC1006
  9
$DWGCODEPAGE
  3
ansi_949
  9
$INSBASE
 10
0.0
 20
0.0
 30
0.0
  9
$EXTMIN
 10
1204.194572465821
 20
1427.25862912936
  9
$EXTMAX
 10
1619.201566549739
 20
1745.432236866355
  9
$LIMMIN
 10
0.0
 20
0.0
  9
$LIMMAX
 10
420.0
 20
297.0
  9
$ORTHOMODE
 70
     0
  9
$REGENMODE
 70
     1
  9
$FILLMODE
 70
     1
  9
$QTEXTMODE
 70
     0
  9
$MIRRTEXT
 70
     0
  9
$DRAGMODE
 70
     2
  9
$LTSCALE
 40
1.0
  9
$OSMODE
 70
    37
  9
$ATTMODE
 70
     1
  9
$TEXTSIZE
 40
2.5
  9
$TRACEWID
 40
1.0
  9
$TEXTSTYLE
  7
STANDARD
  9
$CLAYER
  8
DEFPOINTS
  9
$CELTYPE
  6
BYLAYER
  9
$CECOLOR
 62
   256
  9
$DIMSCALE
 40
1.0
  9
$DIMASZ
 40
2.5
  9
$DIMEXO
 40
0.625
  9
$DIMDLI
 40
3.75
  9
$DIMRND
 40
0.0
  9
$DIMDLE
 40
0.0
  9
$DIMEXE
 40
1.25
  9
$DIMTP
 40
0.0
  9
$DIMTM
 40
0.0
  9
$DIMTXT
 40
2.5
  9
$DIMCEN
 40
2.5
  9
$DIMTSZ
 40
0.0
  9
$DIMTOL
 70
     0
  9
$DIMLIM
 70
     0
  9
$DIMTIH
 70
     0
  9
$DIMTOH
 70
     0
  9
$DIMSE1
 70
     0
  9
$DIMSE2
 70
     0
  9
$DIMTAD
 70
     1
  9
$DIMZIN
 70
     8
  9
$DIMBLK
  1

  9
$DIMASO
 70
     1
  9
$DIMSHO
 70
     1
  9
$DIMPOST
  1

  9
$DIMAPOST
  1

  9
$DIMALT
 70
     0
  9
$DIMALTD
 70
     3
  9
$DIMALTF
 40
0.03937007874016
  9
$DIMLFAC
 40
1.0
  9
$DIMTOFL
 70
     1
  9
$DIMTVP
 40
0.0
  9
$DIMTIX
 70
     0
  9
$DIMSOXD
 70
     0
  9
$DIMSAH
 70
     0
  9
$DIMBLK1
  1

  9
$DIMBLK2
  1

  9
$LUNITS
 70
     2
  9
$LUPREC
 70
     4
  9
$SKETCHINC
 40
1.0
  9
$FILLETRAD
 40
0.0
  9
$AUNITS
 70
     0
  9
$AUPREC
 70
     0
  9
$MENU
  1
.
  9
$ELEVATION
 40
0.0
  9
$THICKNESS
 40
0.0
  9
$LIMCHECK
 70
     0
  9
$CHAMFERA
 40
0.0
  9
$CHAMFERB
 40
0.0
  9
$SKPOLY
 70
     0
  9
$TDCREATE
 40
2459912.576921296
  9
$TDUPDATE
 40
2459913.73529919
  9
$TDINDWG
 40
0.2591435185
  9
$TDUSRTIMER
 40
0.2591435185
  9
$USRTIMER
 70
     1
  9
$ANGBASE
 50
0.0
  9
$ANGDIR
 70
     0
  9
$PDMODE
 70
     0
  9
$PDSIZE
 40
0.0
  9
$PLINEWID
 40
0.0
  9
$COORDS
 70
     1
  9
$SPLFRAME
 70
     0
  9
$SPLINETYPE
 70
     6
  9
$SPLINESEGS
 70
     8
  9
$ATTDIA
 70
     0
  9
$ATTREQ
 70
     1
  9
$HANDLING
 70
     1
  9
$HANDSEED
  5
8F0
  9
$SURFTAB1
 70
     6
  9
$SURFTAB2
 70
     6
  9
$SURFTYPE
 70
     6
  9
$SURFU
 70
     6
  9
$SURFV
 70
     6
  9
$UCSNAME
  2

  9
$UCSORG
 10
0.0
 20
0.0
 30
0.0
  9
$UCSXDIR
 10
1.0
 20
0.0
 30
0.0
  9
$UCSYDIR
 10
0.0
 20
1.0
 30
0.0
  9
$USERI1
 70
     0
  9
$USERI2
 70
     0
  9
$USERI3
 70
     0
  9
$USERI4
 70
     0
  9
$USERI5
 70
     0
  9
$USERR1
 40
0.0
  9
$USERR2
 40
0.0
  9
$USERR3
 40
0.0
  9
$USERR4
 40
0.0
  9
$USERR5
 40
0.0
  9
$WORLDVIEW
 70
     1
  0
ENDSEC
  0
SECTION
  2
TABLES
  0
TABLE
  2
VPORT
 70
     1
  0
VPORT
  2
*ACTIVE
 70
     0
 10
0.0
 20
0.0
 11
1.0
 21
1.0
 12
198.0322758712751
 22
-96.04144037322249
 13
0.0
 23
0.0
 14
10.0
 24
10.0
 15
10.0
 25
10.0
 16
0.0
 26
0.0
 36
250.1533391473373
 17
1258.013701055121
 27
1680.669497014165
 37
-0.0000000000000015
 40
370.3767220454579
 41
2.345252774352651
 42
50.0
 43
0.0
 44
0.0
 50
0.0
 51
0.0
 71
     0
 72
  1000
 73
     1
 74
     3
 75
     0
 76
     1
 77
     0
 78
     0
  0
ENDTAB
  0
TABLE
  2
LTYPE
 70
     1
  0
LTYPE
  2
CONTINUOUS
 70
     0
  3
Solid line
 72
    65
 73
     0
 40
0.0
  0
ENDTAB
  0
TABLE
  2
LAYER
 70
     2
  0
LAYER
  2
0
 70
     0
 62
     7
  6
CONTINUOUS
  0
LAYER
  2
DEFPOINTS
 70
     0
 62
     7
  6
CONTINUOUS
  0
ENDTAB
  0
TABLE
  2
STYLE
 70
     2
  0
STYLE
  2
STANDARD
 70
     0
 40
0.0
 41
1.0
 50
0.0
 71
     0
 42
2.5
  3
arial.ttf
  4

  0
STYLE
  2
¡÷ºÆ
 70
     0
 40
0.0
 41
1.0
 50
0.0
 71
     0
 42
2.5
  3
arial.ttf
  4

  0
ENDTAB
  0
TABLE
  2
VIEW
 70
     0
  0
ENDTAB
  0
TABLE
  2
UCS
 70
     0
  0
ENDTAB
  0
ENDSEC
  0
SECTION
  2
BLOCKS
  0
BLOCK
  8
0
  2
*D5
 70
     1
 10
0.0
 20
0.0
 30
0.0
  0
LINE
  5
7D9
  8
0
 62
     0
 10
1245.350692785279
 20
1706.142986423469
 30
0.0
 11
1245.350692785279
 21
1716.283407071563
 31
0.0
  0
LINE
  5
7DA
  8
0
 62
     0
 10
1275.350692785279
 20
1706.142986423469
 30
0.0
 11
1275.350692785279
 21
1716.283407071563
 31
0.0
  0
LINE
  5
7DB
  8
0
 62
     0
 10
1247.850692785279
 20
1715.033407071563
 30
0.0
 11
1272.850692785279
 21
1715.033407071563
 31
0.0
  0
SOLID
  5
7DC
  8
0
 62
     0
 10
1247.850692785279
 20
1715.45007373823
 30
0.0
 11
1247.850692785279
 21
1714.616740404897
 31
0.0
 12
1245.350692785279
 22
1715.033407071563
 32
0.0
 13
1245.350692785279
 23
1715.033407071563
 33
0.0
  0
SOLID
  5
7DD
  8
0
 62
     0
 10
1272.850692785279
 20
1715.45007373823
 30
0.0
 11
1272.850692785279
 21
1714.616740404897
 31
0.0
 12
1275.350692785279
 22
1715.033407071563
 32
0.0
 13
1275.350692785279
 23
1715.033407071563
 33
0.0
  0
TEXT
  5
7DE
  8
0
  6
CONTINUOUS
 62
     0
 10
1258.32688326147
 20
1715.685692201168
 30
0.0
 40
2.5
  1
30
  0
POINT
  5
7DF
  8
DEFPOINTS
 62
     0
 10
1245.350692785279
 20
1705.517986423469
 30
0.0
  0
POINT
  5
7E0
  8
DEFPOINTS
 62
     0
 10
1275.350692785279
 20
1705.517986423469
 30
0.0
  0
POINT
  5
7E1
  8
DEFPOINTS
 62
     0
 10
1275.350692785279
 20
1715.033407071563
 30
0.0
  0
ENDBLK
  8
0
  0
BLOCK
  8
0
  2
*D6
 70
     1
 10
0.0
 20
0.0
 30
0.0
  0
LINE
  5
7E2
  8
0
 62
     0
 10
1250.350692785279
 20
1703.142986423469
 30
0.0
 11
1250.350692785279
 21
1710.77878909452
 31
0.0
  0
LINE
  5
7E3
  8
0
 62
     0
 10
1245.350692785279
 20
1703.142986423469
 30
0.0
 11
1245.350692785279
 21
1710.77878909452
 31
0.0
  0
LINE
  5
7E4
  8
0
 62
     0
 10
1252.850692785279
 20
1709.52878909452
 30
0.0
 11
1255.350692785279
 21
1709.52878909452
 31
0.0
  0
LINE
  5
7E5
  8
0
 62
     0
 10
1242.850692785279
 20
1709.52878909452
 30
0.0
 11
1240.350692785279
 21
1709.52878909452
 31
0.0
  0
LINE
  5
7E6
  8
0
 62
     0
 10
1250.350692785279
 20
1709.52878909452
 30
0.0
 11
1245.350692785279
 21
1709.52878909452
 31
0.0
  0
SOLID
  5
7E7
  8
0
 62
     0
 10
1252.850692785279
 20
1709.945455761187
 30
0.0
 11
1252.850692785279
 21
1709.112122427853
 31
0.0
 12
1250.350692785279
 22
1709.52878909452
 32
0.0
 13
1250.350692785279
 23
1709.52878909452
 33
0.0
  0
SOLID
  5
7E8
  8
0
 62
     0
 10
1242.850692785279
 20
1709.945455761187
 30
0.0
 11
1242.850692785279
 21
1709.112122427853
 31
0.0
 12
1245.350692785279
 22
1709.52878909452
 32
0.0
 13
1245.350692785279
 23
1709.52878909452
 33
0.0
  0
TEXT
  5
7E9
  8
0
  6
CONTINUOUS
 62
     0
 10
1247.017359451946
 20
1710.175105602023
 30
0.0
 40
2.5
  1
5
  0
POINT
  5
7EA
  8
DEFPOINTS
 62
     0
 10
1250.350692785279
 20
1702.517986423469
 30
0.0
  0
POINT
  5
7EB
  8
DEFPOINTS
 62
     0
 10
1245.350692785279
 20
1702.517986423469
 30
0.0
  0
POINT
  5
7EC
  8
DEFPOINTS
 62
     0
 10
1245.350692785279
 20
1709.52878909452
 30
0.0
  0
ENDBLK
  8
0
  0
BLOCK
  8
0
  2
*D8
 70
     1
 10
0.0
 20
0.0
 30
0.0
  0
LINE
  5
7ED
  8
0
 62
     0
 10
1237.473335625649
 20
1689.271577406396
 30
0.0
 11
1248.364106291019
 21
1700.474466396451
 31
0.0
  0
LINE
  5
7EE
  8
0
 62
     0
 10
1252.337279279539
 20
1704.561506450485
 30
0.0
 11
1254.079899011346
 21
1706.354067877694
 31
0.0
  0
TEXT
  5
7EF
  8
0
  6
CONTINUOUS
 62
     0
 10
1237.000173662387
 20
1690.443866478936
 30
0.0
 40
2.5
  1
\U+22050,7
 50
45.80936673560343
  0
LINE
  5
7F0
  8
0
 62
     0
 10
1250.594659547731
 20
1702.768945023277
 30
0.0
 11
1250.106726022826
 21
1702.267027823659
 31
0.0
  0
SOLID
  5
7F1
  8
0
 62
     0
 10
1252.03851904167
 20
1704.851943072453
 30
0.0
 11
1252.636039517407
 21
1704.271069828517
 31
0.0
 12
1250.594659547731
 22
1702.768945023277
 32
0.0
 13
1250.594659547731
 23
1702.768945023277
 33
0.0
  0
SOLID
  5
7F2
  8
0
 62
     0
 10
1248.065346053151
 20
1700.764903018418
 30
0.0
 11
1248.662866528887
 21
1700.184029774483
 31
0.0
 12
1250.106726022826
 22
1702.267027823659
 32
0.0
 13
1250.106726022826
 23
1702.267027823659
 33
0.0
  0
POINT
  5
7F3
  8
DEFPOINTS
 62
     0
 10
1250.106726022826
 20
1702.267027823659
 30
0.0
  0
POINT
  5
7F4
  8
DEFPOINTS
 62
     0
 10
1250.594659547731
 20
1702.768945023277
 30
0.0
  0
ENDBLK
  8
0
  0
BLOCK
  8
0
  2
A$C4FA65145
 70
     0
 10
0.0
 20
0.0
 30
0.0
  0
CIRCLE
  5
3D6
  8
0
 10
0.3499999999999091
 20
0.3499999999999091
 30
0.0
 40
0.35
  0
ENDBLK
  8
0
  0
BLOCK
  8
0
  2
A$C3EC43E16
 70
     0
 10
0.0
 20
0.0
 30
0.0
  0
CIRCLE
  5
3EB
  8
0
 10
0.3499999999999091
 20
0.3499999999999091
 30
0.0
 40
0.35
  0
ENDBLK
  8
0
  0
BLOCK
  8
0
  2
*D11
 70
     1
 10
0.0
 20
0.0
 30
0.0
  0
LINE
  5
7F5
  8
0
 62
     0
 10
1250.350692785279
 20
1701.892986423469
 30
0.0
 11
1250.350692785279
 21
1691.643865078102
 31
0.0
  0
LINE
  5
7F6
  8
0
 62
     0
 10
1255.430692785279
 20
1701.892986423469
 30
0.0
 11
1255.430692785279
 21
1691.643865078102
 31
0.0
  0
LINE
  5
7F7
  8
0
 62
     0
 10
1247.850692785279
 20
1692.893865078102
 30
0.0
 11
1245.350692785279
 21
1692.893865078102
 31
0.0
  0
LINE
  5
7F8
  8
0
 62
     0
 10
1257.930692785279
 20
1692.893865078102
 30
0.0
 11
1268.179669592919
 21
1692.893865078102
 31
0.0
  0
LINE
  5
7F9
  8
0
 62
     0
 10
1250.350692785279
 20
1692.893865078102
 30
0.0
 11
1255.430692785279
 21
1692.893865078102
 31
0.0
  0
SOLID
  5
7FA
  8
0
 62
     0
 10
1247.850692785279
 20
1693.310531744769
 30
0.0
 11
1247.850692785279
 21
1692.477198411435
 31
0.0
 12
1250.350692785279
 22
1692.893865078102
 32
0.0
 13
1250.350692785279
 23
1692.893865078102
 33
0.0
  0
SOLID
  5
7FB
  8
0
 62
     0
 10
1257.930692785279
 20
1693.310531744769
 30
0.0
 11
1257.930692785279
 21
1692.477198411435
 31
0.0
 12
1255.430692785279
 22
1692.893865078102
 32
0.0
 13
1255.430692785279
 23
1692.893865078102
 33
0.0
  0
TEXT
  5
7FC
  8
0
  6
CONTINUOUS
 62
     0
 10
1260.495657379575
 20
1694.009347765038
 30
0.0
 40
2.5
  1
5,08
  0
POINT
  5
7FD
  8
DEFPOINTS
 62
     0
 10
1250.350692785279
 20
1702.517986423469
 30
0.0
  0
POINT
  5
7FE
  8
DEFPOINTS
 62
     0
 10
1255.430692785279
 20
1702.517986423469
 30
0.0
  0
POINT
  5
7FF
  8
DEFPOINTS
 62
     0
 10
1255.430692785279
 20
1692.893865078102
 30
0.0
  0
ENDBLK
  8
0
  0
BLOCK
  8
0
  2
A$C8BE07A82
 70
     0
 10
0.0
 20
0.0
 30
0.0
  0
CIRCLE
  5
42E
  8
0
 10
0.3499999999999091
 20
0.3499999999999091
 30
0.0
 40
0.35
  0
CIRCLE
  5
42F
  8
0
 10
5.429999999999609
 20
0.3499999999999091
 30
0.0
 40
0.35
  0
CIRCLE
  5
430
  8
0
 10
10.50999999999954
 20
0.3499999999999091
 30
0.0
 40
0.35
  0
CIRCLE
  5
431
  8
0
 10
15.58999999999946
 20
0.3499999999999091
 30
0.0
 40
0.35
  0
CIRCLE
  5
432
  8
0
 10
20.66999999999939
 20
0.3499999999999091
 30
0.0
 40
0.35
  0
ENDBLK
  8
0
  0
BLOCK
  8
0
  2
*D13
 70
     1
 10
0.0
 20
0.0
 30
0.0
  0
LINE
  5
800
  8
0
 62
     0
 10
1249.72569278528
 20
1702.517986423469
 30
0.0
 11
1225.978933942569
 21
1702.517986423469
 31
0.0
  0
LINE
  5
801
  8
0
 62
     0
 10
1249.72569278528
 20
1620.91798642347
 30
0.0
 11
1225.978933942569
 21
1620.91798642347
 31
0.0
  0
LINE
  5
802
  8
0
 62
     0
 10
1227.228933942569
 20
1700.017986423469
 30
0.0
 11
1227.228933942569
 21
1623.41798642347
 31
0.0
  0
SOLID
  5
803
  8
0
 62
     0
 10
1226.812267275903
 20
1700.017986423469
 30
0.0
 11
1227.645600609236
 21
1700.017986423469
 31
0.0
 12
1227.228933942569
 22
1702.517986423469
 32
0.0
 13
1227.228933942569
 23
1702.517986423469
 33
0.0
  0
SOLID
  5
804
  8
0
 62
     0
 10
1226.812267275903
 20
1623.41798642347
 30
0.0
 11
1227.645600609236
 21
1623.41798642347
 31
0.0
 12
1227.228933942569
 22
1620.91798642347
 32
0.0
 13
1227.228933942569
 23
1620.91798642347
 33
0.0
  0
TEXT
  5
805
  8
0
  6
CONTINUOUS
 62
     0
 10
1226.113451255634
 20
1658.206081661564
 30
0.0
 40
2.5
  1
81,6
 50
90.0
  0
POINT
  5
806
  8
DEFPOINTS
 62
     0
 10
1250.35069278528
 20
1702.517986423469
 30
0.0
  0
POINT
  5
807
  8
DEFPOINTS
 62
     0
 10
1250.35069278528
 20
1620.91798642347
 30
0.0
  0
POINT
  5
808
  8
DEFPOINTS
 62
     0
 10
1227.228933942569
 20
1620.91798642347
 30
0.0
  0
ENDBLK
  8
0
  0
BLOCK
  8
0
  2
*D14
 70
     1
 10
0.0
 20
0.0
 30
0.0
  0
LINE
  5
809
  8
0
 62
     0
 10
1249.72569278528
 20
1545.037986423469
 30
0.0
 11
1225.978721560308
 21
1545.037986423469
 31
0.0
  0
LINE
  5
80A
  8
0
 62
     0
 10
1249.72569278528
 20
1620.91798642347
 30
0.0
 11
1225.978721560308
 21
1620.91798642347
 31
0.0
  0
LINE
  5
80B
  8
0
 62
     0
 10
1227.228721560308
 20
1547.537986423469
 30
0.0
 11
1227.228721560308
 21
1618.41798642347
 31
0.0
  0
SOLID
  5
80C
  8
0
 62
     0
 10
1226.812054893642
 20
1547.537986423469
 30
0.0
 11
1227.645388226975
 21
1547.537986423469
 31
0.0
 12
1227.228721560308
 22
1545.037986423469
 32
0.0
 13
1227.228721560308
 23
1545.037986423469
 33
0.0
  0
SOLID
  5
80D
  8
0
 62
     0
 10
1226.812054893642
 20
1618.41798642347
 30
0.0
 11
1227.645388226975
 21
1618.41798642347
 31
0.0
 12
1227.228721560308
 22
1620.91798642347
 32
0.0
 13
1227.228721560308
 23
1620.91798642347
 33
0.0
  0
TEXT
  5
80E
  8
0
  6
CONTINUOUS
 62
     0
 10
1226.113238873373
 20
1577.977986423469
 30
0.0
 40
2.5
  1
75,88
 50
90.0
  0
POINT
  5
80F
  8
DEFPOINTS
 62
     0
 10
1250.35069278528
 20
1545.037986423469
 30
0.0
  0
POINT
  5
810
  8
DEFPOINTS
 62
     0
 10
1250.35069278528
 20
1620.91798642347
 30
0.0
  0
POINT
  5
811
  8
DEFPOINTS
 62
     0
 10
1227.228721560308
 20
1620.91798642347
 30
0.0
  0
ENDBLK
  8
0
  0
BLOCK
  8
0
  2
*D15
 70
     1
 10
0.0
 20
0.0
 30
0.0
  0
LINE
  5
812
  8
0
 62
     0
 10
1249.72569278528
 20
1702.517986423469
 30
0.0
 11
1225.595710985101
 21
1702.517986423469
 31
0.0
  0
LINE
  5
813
  8
0
 62
     0
 10
1244.72569278528
 20
1705.517986423469
 30
0.0
 11
1225.595710985101
 21
1705.517986423469
 31
0.0
  0
LINE
  5
814
  8
0
 62
     0
 10
1226.845710985101
 20
1700.017986423469
 30
0.0
 11
1226.845710985101
 21
1697.517986423469
 31
0.0
  0
LINE
  5
815
  8
0
 62
     0
 10
1226.845710985101
 20
1708.017986423469
 30
0.0
 11
1226.845710985101
 21
1710.517986423469
 31
0.0
  0
LINE
  5
816
  8
0
 62
     0
 10
1226.845710985101
 20
1702.517986423469
 30
0.0
 11
1226.845710985101
 21
1705.517986423469
 31
0.0
  0
SOLID
  5
817
  8
0
 62
     0
 10
1226.429044318434
 20
1700.017986423469
 30
0.0
 11
1227.262377651768
 21
1700.017986423469
 31
0.0
 12
1226.845710985101
 22
1702.517986423469
 32
0.0
 13
1226.845710985101
 23
1702.517986423469
 33
0.0
  0
SOLID
  5
818
  8
0
 62
     0
 10
1226.429044318434
 20
1708.017986423469
 30
0.0
 11
1227.262377651768
 21
1708.017986423469
 31
0.0
 12
1226.845710985101
 22
1705.517986423469
 32
0.0
 13
1226.845710985101
 23
1705.517986423469
 33
0.0
  0
TEXT
  5
819
  8
0
  6
CONTINUOUS
 62
     0
 10
1226.193425855497
 20
1703.184653090135
 30
0.0
 40
2.5
  1
3
 50
90.0
  0
POINT
  5
81A
  8
DEFPOINTS
 62
     0
 10
1250.35069278528
 20
1702.517986423469
 30
0.0
  0
POINT
  5
81B
  8
DEFPOINTS
 62
     0
 10
1245.35069278528
 20
1705.517986423469
 30
0.0
  0
POINT
  5
81C
  8
DEFPOINTS
 62
     0
 10
1226.845710985101
 20
1705.517986423469
 30
0.0
  0
ENDBLK
  8
0
  0
BLOCK
  8
0
  2
*D16
 70
     1
 10
0.0
 20
0.0
 30
0.0
  0
LINE
  5
81D
  8
0
 62
     0
 10
1268.010692785279
 20
1678.142986423469
 30
0.0
 11
1268.010692785279
 21
1685.160626526148
 31
0.0
  0
LINE
  5
81E
  8
0
 62
     0
 10
1253.010692785279
 20
1678.142986423469
 30
0.0
 11
1253.010692785279
 21
1685.160626526148
 31
0.0
  0
LINE
  5
81F
  8
0
 62
     0
 10
1265.510692785279
 20
1683.910626526148
 30
0.0
 11
1255.510692785279
 21
1683.910626526148
 31
0.0
  0
SOLID
  5
820
  8
0
 62
     0
 10
1265.510692785279
 20
1684.327293192815
 30
0.0
 11
1265.510692785279
 21
1683.493959859482
 31
0.0
 12
1268.010692785279
 22
1683.910626526148
 32
0.0
 13
1268.010692785279
 23
1683.910626526148
 33
0.0
  0
SOLID
  5
821
  8
0
 62
     0
 10
1255.510692785279
 20
1684.327293192815
 30
0.0
 11
1255.510692785279
 21
1683.493959859482
 31
0.0
 12
1253.010692785279
 22
1683.910626526148
 32
0.0
 13
1253.010692785279
 23
1683.910626526148
 33
0.0
  0
TEXT
  5
822
  8
0
  6
CONTINUOUS
 62
     0
 10
1258.724978499565
 20
1684.562058995453
 30
0.0
 40
2.5
  1
15
  0
POINT
  5
823
  8
DEFPOINTS
 62
     0
 10
1268.010692785279
 20
1677.517986423469
 30
0.0
  0
POINT
  5
824
  8
DEFPOINTS
 62
     0
 10
1253.010692785279
 20
1677.517986423469
 30
0.0
  0
POINT
  5
825
  8
DEFPOINTS
 62
     0
 10
1253.010692785279
 20
1683.910626526148
 30
0.0
  0
ENDBLK
  8
0
  0
BLOCK
  8
0
  2
*D18
 70
     1
 10
0.0
 20
0.0
 30
0.0
  0
LINE
  5
826
  8
0
 62
     0
 10
1268.635692785279
 20
1677.51798642347
 30
0.0
 11
1282.597487190253
 21
1677.51798642347
 31
0.0
  0
LINE
  5
827
  8
0
 62
     0
 10
1271.295692785279
 20
1702.517986423469
 30
0.0
 11
1282.597487190253
 21
1702.517986423469
 31
0.0
  0
LINE
  5
828
  8
0
 62
     0
 10
1281.347487190253
 20
1680.01798642347
 30
0.0
 11
1281.347487190253
 21
1700.017986423469
 31
0.0
  0
SOLID
  5
829
  8
0
 62
     0
 10
1280.930820523586
 20
1680.01798642347
 30
0.0
 11
1281.764153856919
 21
1680.01798642347
 31
0.0
 12
1281.347487190253
 22
1677.51798642347
 32
0.0
 13
1281.347487190253
 23
1677.51798642347
 33
0.0
  0
SOLID
  5
82A
  8
0
 62
     0
 10
1280.930820523586
 20
1700.017986423469
 30
0.0
 11
1281.764153856919
 21
1700.017986423469
 31
0.0
 12
1281.347487190253
 22
1702.517986423469
 32
0.0
 13
1281.347487190253
 23
1702.517986423469
 33
0.0
  0
TEXT
  5
82B
  8
0
  6
CONTINUOUS
 62
     0
 10
1280.696054720949
 20
1687.99417689966
 30
0.0
 40
2.5
  1
25
 50
90.0
  0
POINT
  5
82C
  8
DEFPOINTS
 62
     0
 10
1268.010692785279
 20
1677.51798642347
 30
0.0
  0
POINT
  5
82D
  8
DEFPOINTS
 62
     0
 10
1270.670692785279
 20
1702.517986423469
 30
0.0
  0
POINT
  5
82E
  8
DEFPOINTS
 62
     0
 10
1281.347487190253
 20
1702.517986423469
 30
0.0
  0
ENDBLK
  8
0
  0
BLOCK
  8
0
  2
*D20
 70
     1
 10
0.0
 20
0.0
 30
0.0
  0
LINE
  5
82F
  8
0
 62
     0
 10
1268.635692785279
 20
1647.517986423469
 30
0.0
 11
1282.683744275163
 21
1647.517986423469
 31
0.0
  0
LINE
  5
830
  8
0
 62
     0
 10
1268.635692785279
 20
1677.517986423469
 30
0.0
 11
1282.683744275163
 21
1677.517986423469
 31
0.0
  0
LINE
  5
831
  8
0
 62
     0
 10
1281.433744275163
 20
1650.017986423469
 30
0.0
 11
1281.433744275163
 21
1675.017986423469
 31
0.0
  0
SOLID
  5
832
  8
0
 62
     0
 10
1281.017077608496
 20
1650.017986423469
 30
0.0
 11
1281.850410941829
 21
1650.017986423469
 31
0.0
 12
1281.433744275163
 22
1647.517986423469
 32
0.0
 13
1281.433744275163
 23
1647.517986423469
 33
0.0
  0
SOLID
  5
833
  8
0
 62
     0
 10
1281.017077608496
 20
1675.017986423469
 30
0.0
 11
1281.850410941829
 21
1675.017986423469
 31
0.0
 12
1281.433744275163
 22
1677.517986423469
 32
0.0
 13
1281.433744275163
 23
1677.517986423469
 33
0.0
  0
TEXT
  5
834
  8
0
  6
CONTINUOUS
 62
     0
 10
1280.781459145558
 20
1660.494176899659
 30
0.0
 40
2.5
  1
30
 50
90.0
  0
POINT
  5
835
  8
DEFPOINTS
 62
     0
 10
1268.010692785279
 20
1647.517986423469
 30
0.0
  0
POINT
  5
836
  8
DEFPOINTS
 62
     0
 10
1268.010692785279
 20
1677.517986423469
 30
0.0
  0
POINT
  5
837
  8
DEFPOINTS
 62
     0
 10
1281.433744275163
 20
1677.517986423469
 30
0.0
  0
ENDBLK
  8
0
  0
BLOCK
  8
0
  2
*D21
 70
     1
 10
0.0
 20
0.0
 30
0.0
  0
LINE
  5
849
  8
0
 62
     0
 10
1234.457135630921
 20
1650.623301462404
 30
0.0
 11
1249.06556818495
 21
1648.178283241483
 31
0.0
  0
LINE
  5
84A
  8
0
 62
     0
 10
1256.955817385608
 20
1646.857689605454
 30
0.0
 11
1259.421520260813
 21
1646.445004094195
 31
0.0
  0
TEXT
  5
84B
  8
0
  6
CONTINUOUS
 62
     0
 10
1235.404800624488
 20
1651.196074823143
 30
0.0
 40
2.5
  1
\U+22053
 50
350.4984548152982
  0
LINE
  5
84C
  8
0
 62
     0
 10
1254.490114510402
 20
1647.270375116713
 30
0.0
 11
1251.531271060155
 21
1647.765597730224
 31
0.0
  0
SOLID
  5
84D
  8
0
 62
     0
 10
1257.024598304151
 20
1647.268640084655
 30
0.0
 11
1256.887036467065
 21
1646.446739126253
 31
0.0
 12
1254.490114510402
 22
1647.270375116713
 32
0.0
 13
1254.490114510402
 23
1647.270375116713
 33
0.0
  0
SOLID
  5
84E
  8
0
 62
     0
 10
1249.134349103493
 20
1648.589233720684
 30
0.0
 11
1248.996787266406
 21
1647.767332762282
 31
0.0
 12
1251.531271060155
 22
1647.765597730224
 32
0.0
 13
1251.531271060155
 23
1647.765597730224
 33
0.0
  0
POINT
  5
84F
  8
DEFPOINTS
 62
     0
 10
1251.531271060155
 20
1647.765597730224
 30
0.0
  0
POINT
  5
850
  8
DEFPOINTS
 62
     0
 10
1254.490114510402
 20
1647.270375116713
 30
0.0
  0
ENDBLK
  8
0
  0
BLOCK
  8
0
  2
*D31
 70
     1
 10
0.0
 20
0.0
 30
0.0
  0
LINE
  5
6AE
  8
DEFPOINTS
 62
     0
 10
1447.490836727068
 20
1593.799262099732
 30
0.0
 11
1447.490836727068
 21
1598.961453696039
 31
0.0
  0
LINE
  5
6AF
  8
DEFPOINTS
 62
     0
 10
1467.490836727068
 20
1593.799262099732
 30
0.0
 11
1467.490836727068
 21
1598.961453696039
 31
0.0
  0
LINE
  5
6B0
  8
DEFPOINTS
 62
     0
 10
1449.990836727068
 20
1597.711453696039
 30
0.0
 11
1464.990836727068
 21
1597.711453696039
 31
0.0
  0
SOLID
  5
6B1
  8
DEFPOINTS
 62
     0
 10
1449.990836727068
 20
1598.128120362706
 30
0.0
 11
1449.990836727068
 21
1597.294787029372
 31
0.0
 12
1447.490836727068
 22
1597.711453696039
 32
0.0
 13
1447.490836727068
 23
1597.711453696039
 33
0.0
  0
SOLID
  5
6B2
  8
DEFPOINTS
 62
     0
 10
1464.990836727068
 20
1598.128120362706
 30
0.0
 11
1464.990836727068
 21
1597.294787029372
 31
0.0
 12
1467.490836727068
 22
1597.711453696039
 32
0.0
 13
1467.490836727068
 23
1597.711453696039
 33
0.0
  0
TEXT
  5
6B3
  8
DEFPOINTS
  6
CONTINUOUS
 62
     0
 10
1455.467027203258
 20
1598.362886165343
 30
0.0
 40
2.5
  1
20
  0
POINT
  5
6B4
  8
DEFPOINTS
 62
     0
 10
1447.490836727068
 20
1593.174262099732
 30
0.0
  0
POINT
  5
6B5
  8
DEFPOINTS
 62
     0
 10
1467.490836727068
 20
1593.174262099732
 30
0.0
  0
POINT
  5
6B6
  8
DEFPOINTS
 62
     0
 10
1467.490836727068
 20
1597.711453696039
 30
0.0
  0
ENDBLK
  8
0
  0
BLOCK
  8
0
  2
*D32
 70
     1
 10
0.0
 20
0.0
 30
0.0
  0
LINE
  5
7A6
  8
DEFPOINTS
 62
     0
 10
1378.138078917129
 20
1678.142986423468
 30
0.0
 11
1378.138078917129
 21
1721.743465230055
 31
0.0
  0
LINE
  5
7A7
  8
DEFPOINTS
 62
     0
 10
1538.138078917129
 20
1678.142986423468
 30
0.0
 11
1538.138078917129
 21
1721.743465230055
 31
0.0
  0
LINE
  5
7A8
  8
DEFPOINTS
 62
     0
 10
1380.638078917129
 20
1720.493465230055
 30
0.0
 11
1535.638078917129
 21
1720.493465230055
 31
0.0
  0
SOLID
  5
7A9
  8
DEFPOINTS
 62
     0
 10
1380.638078917129
 20
1720.910131896722
 30
0.0
 11
1380.638078917129
 21
1720.076798563388
 31
0.0
 12
1378.138078917129
 22
1720.493465230055
 32
0.0
 13
1378.138078917129
 23
1720.493465230055
 33
0.0
  0
SOLID
  5
7AA
  8
DEFPOINTS
 62
     0
 10
1535.638078917129
 20
1720.910131896722
 30
0.0
 11
1535.638078917129
 21
1720.076798563388
 31
0.0
 12
1538.138078917129
 22
1720.493465230055
 32
0.0
 13
1538.138078917129
 23
1720.493465230055
 33
0.0
  0
TEXT
  5
7AB
  8
DEFPOINTS
  6
CONTINUOUS
 62
     0
 10
1455.161888440939
 20
1721.144897699359
 30
0.0
 40
2.5
  1
160
  0
POINT
  5
7AC
  8
DEFPOINTS
 62
     0
 10
1378.138078917129
 20
1677.517986423468
 30
0.0
  0
POINT
  5
7AD
  8
DEFPOINTS
 62
     0
 10
1538.138078917129
 20
1677.517986423468
 30
0.0
  0
POINT
  5
7AE
  8
DEFPOINTS
 62
     0
 10
1538.138078917129
 20
1720.493465230055
 30
0.0
  0
ENDBLK
  8
0
  0
BLOCK
  8
0
  2
*D33
 70
     1
 10
0.0
 20
0.0
 30
0.0
  0
LINE
  5
7AF
  8
DEFPOINTS
 62
     0
 10
1378.138078917129
 20
1678.142986423468
 30
0.0
 11
1378.138078917129
 21
1721.736688025045
 31
0.0
  0
LINE
  5
7B0
  8
DEFPOINTS
 62
     0
 10
1328.138078917129
 20
1673.142986423468
 30
0.0
 11
1328.138078917129
 21
1721.736688025045
 31
0.0
  0
LINE
  5
7B1
  8
DEFPOINTS
 62
     0
 10
1375.638078917129
 20
1720.486688025045
 30
0.0
 11
1330.638078917129
 21
1720.486688025045
 31
0.0
  0
SOLID
  5
7B2
  8
DEFPOINTS
 62
     0
 10
1375.638078917129
 20
1720.903354691711
 30
0.0
 11
1375.638078917129
 21
1720.070021358378
 31
0.0
 12
1378.138078917129
 22
1720.486688025045
 32
0.0
 13
1378.138078917129
 23
1720.486688025045
 33
0.0
  0
SOLID
  5
7B3
  8
DEFPOINTS
 62
     0
 10
1330.638078917129
 20
1720.903354691711
 30
0.0
 11
1330.638078917129
 21
1720.070021358378
 31
0.0
 12
1328.138078917129
 22
1720.486688025045
 32
0.0
 13
1328.138078917129
 23
1720.486688025045
 33
0.0
  0
TEXT
  5
7B4
  8
DEFPOINTS
  6
CONTINUOUS
 62
     0
 10
1351.11426939332
 20
1721.138120494349
 30
0.0
 40
2.5
  1
50
  0
POINT
  5
7B5
  8
DEFPOINTS
 62
     0
 10
1378.138078917129
 20
1677.517986423468
 30
0.0
  0
POINT
  5
7B6
  8
DEFPOINTS
 62
     0
 10
1328.138078917129
 20
1672.517986423468
 30
0.0
  0
POINT
  5
7B7
  8
DEFPOINTS
 62
     0
 10
1328.138078917129
 20
1720.486688025045
 30
0.0
  0
ENDBLK
  8
0
  0
BLOCK
  8
0
  2
*D34
 70
     1
 10
0.0
 20
0.0
 30
0.0
  0
LINE
  5
7B8
  8
DEFPOINTS
 62
     0
 10
1377.51307891713
 20
1677.517986423469
 30
0.0
 11
1319.070728353717
 21
1677.517986423469
 31
0.0
  0
LINE
  5
7B9
  8
DEFPOINTS
 62
     0
 10
1377.51307891713
 20
1647.517986423469
 30
0.0
 11
1319.070728353717
 21
1647.517986423469
 31
0.0
  0
LINE
  5
7BA
  8
DEFPOINTS
 62
     0
 10
1320.320728353717
 20
1675.017986423469
 30
0.0
 11
1320.320728353717
 21
1650.017986423469
 31
0.0
  0
SOLID
  5
7BB
  8
DEFPOINTS
 62
     0
 10
1319.90406168705
 20
1675.017986423469
 30
0.0
 11
1320.737395020383
 21
1675.017986423469
 31
0.0
 12
1320.320728353717
 22
1677.517986423469
 32
0.0
 13
1320.320728353717
 23
1677.517986423469
 33
0.0
  0
SOLID
  5
7BC
  8
DEFPOINTS
 62
     0
 10
1319.90406168705
 20
1650.017986423469
 30
0.0
 11
1320.737395020383
 21
1650.017986423469
 31
0.0
 12
1320.320728353717
 22
1647.517986423469
 32
0.0
 13
1320.320728353717
 23
1647.517986423469
 33
0.0
  0
TEXT
  5
7BD
  8
DEFPOINTS
  6
CONTINUOUS
 62
     0
 10
1319.668443224112
 20
1660.494176899659
 30
0.0
 40
2.5
  1
30
 50
90.0
  0
POINT
  5
7BE
  8
DEFPOINTS
 62
     0
 10
1378.13807891713
 20
1677.517986423469
 30
0.0
  0
POINT
  5
7BF
  8
DEFPOINTS
 62
     0
 10
1378.13807891713
 20
1647.517986423469
 30
0.0
  0
POINT
  5
7C0
  8
DEFPOINTS
 62
     0
 10
1320.320728353717
 20
1647.517986423469
 30
0.0
  0
ENDBLK
  8
0
  0
BLOCK
  8
0
  2
*D35
 70
     1
 10
0.0
 20
0.0
 30
0.0
  0
LINE
  5
840
  8
DEFPOINTS
 62
     0
 10
1244.72569278528
 20
1705.517986423469
 30
0.0
 11
1206.775575194335
 21
1705.517986423469
 31
0.0
  0
LINE
  5
841
  8
DEFPOINTS
 62
     0
 10
1244.72569278528
 20
1542.517986423469
 30
0.0
 11
1206.775575194335
 21
1542.517986423469
 31
0.0
  0
LINE
  5
842
  8
DEFPOINTS
 62
     0
 10
1208.025575194335
 20
1703.017986423469
 30
0.0
 11
1208.025575194335
 21
1545.017986423469
 31
0.0
  0
SOLID
  5
843
  8
DEFPOINTS
 62
     0
 10
1207.608908527668
 20
1703.017986423469
 30
0.0
 11
1208.442241861001
 21
1703.017986423469
 31
0.0
 12
1208.025575194335
 22
1705.517986423469
 32
0.0
 13
1208.025575194335
 23
1705.517986423469
 33
0.0
  0
SOLID
  5
844
  8
DEFPOINTS
 62
     0
 10
1207.608908527668
 20
1545.017986423469
 30
0.0
 11
1208.442241861001
 21
1545.017986423469
 31
0.0
 12
1208.025575194335
 22
1542.517986423469
 32
0.0
 13
1208.025575194335
 23
1542.517986423469
 33
0.0
  0
TEXT
  5
845
  8
DEFPOINTS
  6
CONTINUOUS
 62
     0
 10
1207.37329006473
 20
1621.041795947278
 30
0.0
 40
2.5
  1
163
 50
90.0
  0
POINT
  5
846
  8
DEFPOINTS
 62
     0
 10
1245.35069278528
 20
1705.517986423469
 30
0.0
  0
POINT
  5
847
  8
DEFPOINTS
 62
     0
 10
1245.35069278528
 20
1542.517986423469
 30
0.0
  0
POINT
  5
848
  8
DEFPOINTS
 62
     0
 10
1208.025575194335
 20
1542.517986423469
 30
0.0
  0
ENDBLK
  8
0
  0
BLOCK
  8
0
  2
*D36
 70
     1
 10
0.0
 20
0.0
 30
0.0
  0
LINE
  5
7CF
  8
DEFPOINTS
 62
     0
 10
1377.51307891713
 20
1677.517986423469
 30
0.0
 11
1319.096355047829
 21
1677.517986423469
 31
0.0
  0
LINE
  5
7D0
  8
DEFPOINTS
 62
     0
 10
1377.51307891713
 20
1692.517986423469
 30
0.0
 11
1319.096355047829
 21
1692.517986423469
 31
0.0
  0
LINE
  5
7D1
  8
DEFPOINTS
 62
     0
 10
1320.346355047829
 20
1680.017986423469
 30
0.0
 11
1320.346355047829
 21
1690.017986423469
 31
0.0
  0
SOLID
  5
7D2
  8
DEFPOINTS
 62
     0
 10
1319.929688381162
 20
1680.017986423469
 30
0.0
 11
1320.763021714495
 21
1680.017986423469
 31
0.0
 12
1320.346355047829
 22
1677.517986423469
 32
0.0
 13
1320.346355047829
 23
1677.517986423469
 33
0.0
  0
SOLID
  5
7D3
  8
DEFPOINTS
 62
     0
 10
1319.929688381162
 20
1690.017986423469
 30
0.0
 11
1320.763021714495
 21
1690.017986423469
 31
0.0
 12
1320.346355047829
 22
1692.517986423469
 32
0.0
 13
1320.346355047829
 23
1692.517986423469
 33
0.0
  0
TEXT
  5
7D4
  8
DEFPOINTS
  6
CONTINUOUS
 62
     0
 10
1319.694922578525
 20
1683.232272137754
 30
0.0
 40
2.5
  1
15
 50
90.0
  0
POINT
  5
7D5
  8
DEFPOINTS
 62
     0
 10
1378.13807891713
 20
1677.517986423469
 30
0.0
  0
POINT
  5
7D6
  8
DEFPOINTS
 62
     0
 10
1378.13807891713
 20
1692.517986423469
 30
0.0
  0
POINT
  5
7D7
  8
DEFPOINTS
 62
     0
 10
1320.346355047829
 20
1692.517986423469
 30
0.0
  0
ENDBLK
  8
0
  0
BLOCK
  8
0
  2
*D37
 70
     1
 10
0.0
 20
0.0
 30
0.0
  0
LINE
  5
887
  8
DEFPOINTS
 62
     0
 10
1328.138078917129
 20
1693.142986423468
 30
0.0
 11
1328.138078917129
 21
1731.02111518175
 31
0.0
  0
LINE
  5
888
  8
DEFPOINTS
 62
     0
 10
1588.138078917129
 20
1693.142986423468
 30
0.0
 11
1588.138078917129
 21
1731.02111518175
 31
0.0
  0
LINE
  5
889
  8
DEFPOINTS
 62
     0
 10
1330.638078917129
 20
1729.77111518175
 30
0.0
 11
1585.638078917129
 21
1729.77111518175
 31
0.0
  0
SOLID
  5
88A
  8
DEFPOINTS
 62
     0
 10
1330.638078917129
 20
1730.187781848417
 30
0.0
 11
1330.638078917129
 21
1729.354448515084
 31
0.0
 12
1328.138078917129
 22
1729.77111518175
 32
0.0
 13
1328.138078917129
 23
1729.77111518175
 33
0.0
  0
SOLID
  5
88B
  8
DEFPOINTS
 62
     0
 10
1585.638078917129
 20
1730.187781848417
 30
0.0
 11
1585.638078917129
 21
1729.354448515084
 31
0.0
 12
1588.138078917129
 22
1729.77111518175
 32
0.0
 13
1588.138078917129
 23
1729.77111518175
 33
0.0
  0
TEXT
  5
88C
  8
DEFPOINTS
  6
CONTINUOUS
 62
     0
 10
1454.923793202843
 20
1730.422547651054
 30
0.0
 40
2.5
  1
260
  0
POINT
  5
88D
  8
DEFPOINTS
 62
     0
 10
1328.138078917129
 20
1692.517986423468
 30
0.0
  0
POINT
  5
88E
  8
DEFPOINTS
 62
     0
 10
1588.138078917129
 20
1692.517986423468
 30
0.0
  0
POINT
  5
88F
  8
DEFPOINTS
 62
     0
 10
1588.138078917129
 20
1729.77111518175
 30
0.0
  0
ENDBLK
  8
0
  0
BLOCK
  8
0
  2
*D38
 70
     1
 10
0.0
 20
0.0
 30
0.0
  0
LINE
  5
87E
  8
DEFPOINTS
 62
     0
 10
1392.314241873351
 20
1682.585508615538
 30
0.0
 11
1381.9046587048
 21
1678.864417522008
 31
0.0
  0
LINE
  5
87F
  8
DEFPOINTS
 62
     0
 10
1374.37149912946
 20
1676.171555324929
 30
0.0
 11
1372.017386762166
 21
1675.330035888342
 31
0.0
  0
TEXT
  5
880
  8
DEFPOINTS
  6
CONTINUOUS
 62
     0
 10
1387.581021099103
 20
1681.659588181713
 30
0.0
 40
2.5
  1
\U+22053
 50
19.67033558149321
  0
LINE
  5
881
  8
DEFPOINTS
 62
     0
 10
1376.725611496754
 20
1677.013074761517
 30
0.0
 11
1379.550546337506
 21
1678.022898085421
 31
0.0
  0
SOLID
  5
882
  8
DEFPOINTS
 62
     0
 10
1374.231245890028
 20
1676.563907386145
 30
0.0
 11
1374.511752368891
 21
1675.779203263714
 31
0.0
 12
1376.725611496754
 22
1677.013074761517
 32
0.0
 13
1376.725611496754
 23
1677.013074761517
 33
0.0
  0
SOLID
  5
883
  8
DEFPOINTS
 62
     0
 10
1381.764405465369
 20
1679.256769583224
 30
0.0
 11
1382.044911944231
 21
1678.472065460792
 31
0.0
 12
1379.550546337506
 22
1678.022898085421
 32
0.0
 13
1379.550546337506
 23
1678.022898085421
 33
0.0
  0
POINT
  5
884
  8
DEFPOINTS
 62
     0
 10
1379.550546337506
 20
1678.022898085421
 30
0.0
  0
POINT
  5
885
  8
DEFPOINTS
 62
     0
 10
1376.725611496754
 20
1677.013074761517
 30
0.0
  0
ENDBLK
  8
0
  0
BLOCK
  8
0
  2
*D39
 70
     1
 10
0.0
 20
0.0
 30
0.0
  0
LINE
  5
8A7
  8
DEFPOINTS
 62
     0
 10
1327.51307891713
 20
1692.517986423469
 30
0.0
 11
1305.280565294178
 21
1692.517986423469
 31
0.0
  0
LINE
  5
8A8
  8
DEFPOINTS
 62
     0
 10
1327.51307891713
 20
1607.517986423469
 30
0.0
 11
1305.280565294178
 21
1607.517986423469
 31
0.0
  0
LINE
  5
8A9
  8
DEFPOINTS
 62
     0
 10
1306.530565294178
 20
1690.017986423469
 30
0.0
 11
1306.530565294178
 21
1610.017986423469
 31
0.0
  0
SOLID
  5
8AA
  8
DEFPOINTS
 62
     0
 10
1306.113898627512
 20
1690.017986423469
 30
0.0
 11
1306.947231960845
 21
1690.017986423469
 31
0.0
 12
1306.530565294178
 22
1692.517986423469
 32
0.0
 13
1306.530565294178
 23
1692.517986423469
 33
0.0
  0
SOLID
  5
8AB
  8
DEFPOINTS
 62
     0
 10
1306.113898627512
 20
1610.017986423469
 30
0.0
 11
1306.947231960845
 21
1610.017986423469
 31
0.0
 12
1306.530565294178
 22
1607.517986423469
 32
0.0
 13
1306.530565294178
 23
1607.517986423469
 33
0.0
  0
TEXT
  5
8AC
  8
DEFPOINTS
  6
CONTINUOUS
 62
     0
 10
1305.879132824875
 20
1647.994176899659
 30
0.0
 40
2.5
  1
85
 50
90.0
  0
POINT
  5
8AD
  8
DEFPOINTS
 62
     0
 10
1328.13807891713
 20
1692.517986423469
 30
0.0
  0
POINT
  5
8AE
  8
DEFPOINTS
 62
     0
 10
1328.13807891713
 20
1607.517986423469
 30
0.0
  0
POINT
  5
8AF
  8
DEFPOINTS
 62
     0
 10
1306.530565294178
 20
1607.517986423469
 30
0.0
  0
ENDBLK
  8
0
  0
ENDSEC
  0
SECTION
  2
ENTITIES
  0
POLYLINE
  5
34A
  8
0
 66
     1
 10
0.0
 20
0.0
 30
0.0
 70
     1
  0
VERTEX
  5
8BE
  8
0
 10
1245.350692785279
 20
1705.517986423469
 30
0.0
  0
VERTEX
  5
8BF
  8
0
 10
1275.350692785279
 20
1705.517986423469
 30
0.0
  0
VERTEX
  5
8C0
  8
0
 10
1275.350692785279
 20
1542.517986423469
 30
0.0
  0
VERTEX
  5
8C1
  8
0
 10
1245.350692785279
 20
1542.517986423469
 30
0.0
  0
SEQEND
  5
8E6
  8
0
  0
DIMENSION
  5
364
  8
0
  2
*D5
 10
1275.350692785279
 20
1715.033407071563
 30
0.0
 11
1260.350692785279
 21
1716.935692201168
 31
0.0
 70
    32
 13
1245.350692785279
 23
1705.517986423469
 33
0.0
 14
1275.350692785279
 24
1705.517986423469
 34
0.0
  0
DIMENSION
  5
37C
  8
0
  2
*D6
 10
1245.350692785279
 20
1709.52878909452
 30
0.0
 11
1247.850692785279
 21
1711.425105602023
 31
0.0
 70
    32
 13
1250.350692785279
 23
1702.517986423469
 33
0.0
 14
1245.350692785279
 24
1702.517986423469
 34
0.0
  0
DIMENSION
  5
3BA
  8
0
  2
*D8
 10
1250.594659547731
 20
1702.768945023277
 30
0.0
 11
1240.443277917545
 21
1692.326635200311
 31
0.0
 70
   163
 15
1250.106726022826
 25
1702.267027823659
 35
0.0
 40
0.0
  0
CIRCLE
  5
3F1
  8
0
 62
    40
 10
1255.430692785279
 20
1702.517986423469
 30
0.0
 40
0.35
  0
CIRCLE
  5
3F2
  8
0
 62
    40
 10
1260.510692785279
 20
1702.517986423469
 30
0.0
 40
0.35
  0
CIRCLE
  5
3F3
  8
0
 62
    40
 10
1265.590692785279
 20
1702.517986423469
 30
0.0
 40
0.35
  0
CIRCLE
  5
3F4
  8
0
 62
    40
 10
1270.670692785279
 20
1702.517986423469
 30
0.0
 40
0.35
  0
DIMENSION
  5
3FD
  8
0
  2
*D11
 10
1255.430692785279
 20
1692.893865078102
 30
0.0
 11
1264.305181189099
 21
1695.021252526942
 31
0.0
 70
    32
 13
1250.350692785279
 23
1702.517986423469
 33
0.0
 14
1255.430692785279
 24
1702.517986423469
 34
0.0
  0
CIRCLE
  5
436
  8
0
 62
    40
 10
1250.350692785279
 20
1620.917986423469
 30
0.0
 40
0.35
  0
CIRCLE
  5
437
  8
0
 62
    40
 10
1255.430692785279
 20
1620.917986423469
 30
0.0
 40
0.35
  0
CIRCLE
  5
438
  8
0
 62
    40
 10
1260.510692785279
 20
1620.917986423469
 30
0.0
 40
0.35
  0
CIRCLE
  5
439
  8
0
 62
    40
 10
1265.590692785279
 20
1620.917986423469
 30
0.0
 40
0.35
  0
CIRCLE
  5
43A
  8
0
 62
    40
 10
1270.670692785279
 20
1620.917986423469
 30
0.0
 40
0.35
  0
DIMENSION
  5
43B
  8
0
  2
*D13
 10
1227.228933942569
 20
1620.91798642347
 30
0.0
 11
1225.101546493729
 21
1661.717986423469
 31
0.0
 70
    32
 13
1250.350692785279
 23
1702.517986423469
 33
0.0
 14
1250.350692785279
 24
1620.917986423469
 34
0.0
 50
90.0
  0
CIRCLE
  5
475
  8
0
 62
    40
 10
1250.350692785279
 20
1545.037986423469
 30
0.0
 40
0.35
  0
CIRCLE
  5
476
  8
0
 62
    40
 10
1255.430692785279
 20
1545.037986423469
 30
0.0
 40
0.35
  0
CIRCLE
  5
477
  8
0
 62
    40
 10
1260.510692785279
 20
1545.037986423469
 30
0.0
 40
0.35
  0
CIRCLE
  5
478
  8
0
 62
    40
 10
1265.590692785279
 20
1545.037986423469
 30
0.0
 40
0.35
  0
CIRCLE
  5
479
  8
0
 62
    40
 10
1270.670692785279
 20
1545.037986423469
 30
0.0
 40
0.35
  0
DIMENSION
  5
47A
  8
0
  2
*D14
 10
1227.228721560308
 20
1620.91798642347
 30
0.0
 11
1225.101334111468
 21
1582.977986423469
 31
0.0
 70
    32
 13
1250.350692785279
 23
1545.037986423468
 33
0.0
 14
1250.350692785279
 24
1620.917986423469
 34
0.0
 50
90.0
  0
DIMENSION
  5
492
  8
0
  2
*D15
 10
1226.845710985101
 20
1705.517986423469
 30
0.0
 11
1224.943425855497
 21
1704.017986423469
 31
0.0
 70
    32
 13
1250.350692785279
 23
1702.517986423469
 33
0.0
 14
1245.350692785279
 24
1705.517986423469
 34
0.0
 50
90.0
  0
DIMENSION
  5
4B0
  8
0
  2
*D16
 10
1253.010692785279
 20
1683.910626526148
 30
0.0
 11
1260.510692785279
 21
1685.812058995453
 31
0.0
 70
    32
 13
1268.010692785279
 23
1677.517986423469
 33
0.0
 14
1253.010692785279
 24
1677.517986423469
 34
0.0
  0
DIMENSION
  5
4FD
  8
0
  2
*D18
 10
1281.347487190253
 20
1702.517986423469
 30
0.0
 11
1279.446054720949
 21
1690.017986423469
 31
0.0
 70
    32
 13
1268.010692785279
 23
1677.517986423469
 33
0.0
 14
1270.670692785279
 24
1702.517986423469
 34
0.0
 50
90.0
  0
CIRCLE
  5
531
  8
0
 10
1253.010692785279
 20
1677.517986423469
 30
0.0
 40
1.5
  0
CIRCLE
  5
532
  8
0
 10
1268.010692785279
 20
1677.517986423469
 30
0.0
 40
1.5
  0
CIRCLE
  5
533
  8
0
 10
1268.010692785279
 20
1647.517986423469
 30
0.0
 40
1.5
  0
CIRCLE
  5
534
  8
0
 10
1253.010692785279
 20
1647.517986423469
 30
0.0
 40
1.5
  0
DIMENSION
  5
55D
  8
0
  2
*D20
 10
1281.433744275163
 20
1677.517986423469
 30
0.0
 11
1279.531459145558
 21
1662.517986423469
 31
0.0
 70
    32
 13
1268.010692785279
 23
1647.517986423469
 33
0.0
 14
1268.010692785279
 24
1677.517986423469
 34
0.0
 50
90.0
  0
DIMENSION
  5
575
  8
0
  2
*D21
 10
1254.490114510402
 20
1647.270375116713
 30
0.0
 11
1237.223062219104
 21
1650.160367408335
 31
0.0
 70
   163
 15
1251.531271060155
 25
1647.765597730224
 35
0.0
 40
0.0
  0
POLYLINE
  5
58B
  8
0
 66
     1
 10
0.0
 20
0.0
 30
0.0
 70
     1
  0
VERTEX
  5
8C2
  8
0
 10
1328.138078917129
 20
1692.517986423468
 30
0.0
  0
VERTEX
  5
8C3
  8
0
 10
1588.138078917129
 20
1692.517986423468
 30
0.0
  0
VERTEX
  5
8C4
  8
0
 10
1588.138078917129
 20
1607.517986423468
 30
0.0
  0
VERTEX
  5
8C5
  8
0
 10
1328.138078917129
 20
1607.517986423468
 30
0.0
  0
SEQEND
  5
8E7
  8
0
  0
POLYLINE
  5
58D
  8
0
 66
     1
 10
0.0
 20
0.0
 30
0.0
 70
     1
  0
VERTEX
  5
8C6
  8
0
 10
1322.690836727067
 20
1593.174262099732
 30
0.0
  0
VERTEX
  5
8C7
  8
0
 10
1385.090836727067
 20
1593.174262099732
 30
0.0
  0
VERTEX
  5
8C8
  8
0
 10
1385.090836727067
 20
1503.174262099732
 30
0.0
  0
VERTEX
  5
8C9
  8
0
 10
1322.690836727067
 20
1503.174262099732
 30
0.0
  0
SEQEND
  5
8E8
  8
0
  0
POLYLINE
  5
5E4
  8
0
 66
     1
 10
0.0
 20
0.0
 30
0.0
 70
     1
  0
VERTEX
  5
8CA
  8
0
 10
1338.730836727068
 20
1591.974262099732
 30
0.0
  0
VERTEX
  5
8CB
  8
0
 10
1368.730836727068
 20
1591.974262099732
 30
0.0
  0
VERTEX
  5
8CC
  8
0
 10
1368.730836727068
 20
1428.974262099732
 30
0.0
  0
VERTEX
  5
8CD
  8
0
 10
1338.730836727068
 20
1428.974262099732
 30
0.0
  0
SEQEND
  5
8E9
  8
0
  0
CIRCLE
  5
5EC
  8
0
 62
    40
 10
1343.730836727068
 20
1588.974262099732
 30
0.0
 40
0.35
  0
CIRCLE
  5
5ED
  8
0
 62
    40
 10
1348.810836727067
 20
1588.974262099732
 30
0.0
 40
0.35
  0
CIRCLE
  5
5EE
  8
0
 62
    40
 10
1353.890836727067
 20
1588.974262099732
 30
0.0
 40
0.35
  0
CIRCLE
  5
5EF
  8
0
 62
    40
 10
1358.970836727067
 20
1588.974262099732
 30
0.0
 40
0.35
  0
CIRCLE
  5
5F0
  8
0
 62
    40
 10
1364.050836727067
 20
1588.974262099732
 30
0.0
 40
0.35
  0
CIRCLE
  5
5F2
  8
0
 62
    40
 10
1343.730836727068
 20
1507.374262099732
 30
0.0
 40
0.35
  0
CIRCLE
  5
5F3
  8
0
 62
    40
 10
1348.810836727067
 20
1507.374262099732
 30
0.0
 40
0.35
  0
CIRCLE
  5
5F4
  8
0
 62
    40
 10
1353.890836727067
 20
1507.374262099732
 30
0.0
 40
0.35
  0
CIRCLE
  5
5F5
  8
0
 62
    40
 10
1358.970836727067
 20
1507.374262099732
 30
0.0
 40
0.35
  0
CIRCLE
  5
5F6
  8
0
 62
    40
 10
1364.050836727067
 20
1507.374262099732
 30
0.0
 40
0.35
  0
CIRCLE
  5
5F7
  8
0
 62
    40
 10
1343.730836727068
 20
1431.494262099732
 30
0.0
 40
0.35
  0
CIRCLE
  5
5F8
  8
0
 62
    40
 10
1348.810836727067
 20
1431.494262099732
 30
0.0
 40
0.35
  0
CIRCLE
  5
5F9
  8
0
 62
    40
 10
1353.890836727067
 20
1431.494262099732
 30
0.0
 40
0.35
  0
CIRCLE
  5
5FA
  8
0
 62
    40
 10
1358.970836727067
 20
1431.494262099732
 30
0.0
 40
0.35
  0
CIRCLE
  5
5FB
  8
0
 62
    40
 10
1364.050836727067
 20
1431.494262099732
 30
0.0
 40
0.35
  0
CIRCLE
  5
5FD
  8
0
 10
1346.390836727067
 20
1563.974262099732
 30
0.0
 40
1.5
  0
CIRCLE
  5
5FE
  8
0
 10
1361.390836727067
 20
1563.974262099732
 30
0.0
 40
1.5
  0
CIRCLE
  5
5FF
  8
0
 10
1361.390836727067
 20
1533.974262099732
 30
0.0
 40
1.5
  0
CIRCLE
  5
600
  8
0
 10
1346.390836727067
 20
1533.974262099732
 30
0.0
 40
1.5
  0
POLYLINE
  5
669
  8
0
 66
     1
 10
0.0
 20
0.0
 30
0.0
 70
     1
  0
VERTEX
  5
8CE
  8
0
 10
1385.090836727067
 20
1593.174262099732
 30
0.0
  0
VERTEX
  5
8CF
  8
0
 10
1447.490836727068
 20
1593.174262099732
 30
0.0
  0
VERTEX
  5
8D0
  8
0
 10
1447.490836727068
 20
1503.174262099732
 30
0.0
  0
VERTEX
  5
8D1
  8
0
 10
1385.090836727067
 20
1503.174262099732
 30
0.0
  0
SEQEND
  5
8EA
  8
0
  0
POLYLINE
  5
66A
  8
0
 66
     1
 10
0.0
 20
0.0
 30
0.0
 70
     1
  0
VERTEX
  5
8D2
  8
0
 10
1401.130836727068
 20
1591.974262099732
 30
0.0
  0
VERTEX
  5
8D3
  8
0
 10
1431.130836727068
 20
1591.974262099732
 30
0.0
  0
VERTEX
  5
8D4
  8
0
 10
1431.130836727068
 20
1428.974262099732
 30
0.0
  0
VERTEX
  5
8D5
  8
0
 10
1401.130836727068
 20
1428.974262099732
 30
0.0
  0
SEQEND
  5
8EB
  8
0
  0
CIRCLE
  5
66B
  8
0
 62
    40
 10
1406.130836727068
 20
1588.974262099732
 30
0.0
 40
0.35
  0
CIRCLE
  5
66C
  8
0
 62
    40
 10
1411.210836727068
 20
1588.974262099732
 30
0.0
 40
0.35
  0
CIRCLE
  5
66D
  8
0
 62
    40
 10
1416.290836727067
 20
1588.974262099732
 30
0.0
 40
0.35
  0
CIRCLE
  5
66E
  8
0
 62
    40
 10
1421.370836727067
 20
1588.974262099732
 30
0.0
 40
0.35
  0
CIRCLE
  5
66F
  8
0
 62
    40
 10
1426.450836727067
 20
1588.974262099732
 30
0.0
 40
0.35
  0
CIRCLE
  5
670
  8
0
 62
    40
 10
1406.130836727068
 20
1507.374262099732
 30
0.0
 40
0.35
  0
CIRCLE
  5
671
  8
0
 62
    40
 10
1411.210836727068
 20
1507.374262099732
 30
0.0
 40
0.35
  0
CIRCLE
  5
672
  8
0
 62
    40
 10
1416.290836727067
 20
1507.374262099732
 30
0.0
 40
0.35
  0
CIRCLE
  5
673
  8
0
 62
    40
 10
1421.370836727067
 20
1507.374262099732
 30
0.0
 40
0.35
  0
CIRCLE
  5
674
  8
0
 62
    40
 10
1426.450836727067
 20
1507.374262099732
 30
0.0
 40
0.35
  0
CIRCLE
  5
675
  8
0
 62
    40
 10
1406.130836727068
 20
1431.494262099732
 30
0.0
 40
0.35
  0
CIRCLE
  5
676
  8
0
 62
    40
 10
1411.210836727068
 20
1431.494262099732
 30
0.0
 40
0.35
  0
CIRCLE
  5
677
  8
0
 62
    40
 10
1416.290836727067
 20
1431.494262099732
 30
0.0
 40
0.35
  0
CIRCLE
  5
678
  8
0
 62
    40
 10
1421.370836727067
 20
1431.494262099732
 30
0.0
 40
0.35
  0
CIRCLE
  5
679
  8
0
 62
    40
 10
1426.450836727067
 20
1431.494262099732
 30
0.0
 40
0.35
  0
CIRCLE
  5
67A
  8
0
 10
1408.790836727067
 20
1563.974262099732
 30
0.0
 40
1.5
  0
CIRCLE
  5
67B
  8
0
 10
1423.790836727067
 20
1563.974262099732
 30
0.0
 40
1.5
  0
CIRCLE
  5
67C
  8
0
 10
1423.790836727067
 20
1533.974262099732
 30
0.0
 40
1.5
  0
CIRCLE
  5
67D
  8
0
 10
1408.790836727067
 20
1533.974262099732
 30
0.0
 40
1.5
  0
POLYLINE
  5
67F
  8
0
 66
     1
 10
0.0
 20
0.0
 30
0.0
 70
     1
  0
VERTEX
  5
8D6
  8
0
 10
1467.490836727068
 20
1593.174262099732
 30
0.0
  0
VERTEX
  5
8D7
  8
0
 10
1529.890836727068
 20
1593.174262099732
 30
0.0
  0
VERTEX
  5
8D8
  8
0
 10
1529.890836727068
 20
1503.174262099732
 30
0.0
  0
VERTEX
  5
8D9
  8
0
 10
1467.490836727068
 20
1503.174262099732
 30
0.0
  0
SEQEND
  5
8EC
  8
0
  0
POLYLINE
  5
680
  8
0
 66
     1
 10
0.0
 20
0.0
 30
0.0
 70
     1
  0
VERTEX
  5
8DA
  8
0
 10
1483.530836727068
 20
1591.974262099732
 30
0.0
  0
VERTEX
  5
8DB
  8
0
 10
1513.530836727068
 20
1591.974262099732
 30
0.0
  0
VERTEX
  5
8DC
  8
0
 10
1513.530836727068
 20
1428.974262099732
 30
0.0
  0
VERTEX
  5
8DD
  8
0
 10
1483.530836727068
 20
1428.974262099732
 30
0.0
  0
SEQEND
  5
8ED
  8
0
  0
CIRCLE
  5
681
  8
0
 62
    40
 10
1488.530836727068
 20
1588.974262099732
 30
0.0
 40
0.35
  0
CIRCLE
  5
682
  8
0
 62
    40
 10
1493.610836727068
 20
1588.974262099732
 30
0.0
 40
0.35
  0
CIRCLE
  5
683
  8
0
 62
    40
 10
1498.690836727068
 20
1588.974262099732
 30
0.0
 40
0.35
  0
CIRCLE
  5
684
  8
0
 62
    40
 10
1503.770836727067
 20
1588.974262099732
 30
0.0
 40
0.35
  0
CIRCLE
  5
685
  8
0
 62
    40
 10
1508.850836727067
 20
1588.974262099732
 30
0.0
 40
0.35
  0
CIRCLE
  5
686
  8
0
 62
    40
 10
1488.530836727068
 20
1507.374262099732
 30
0.0
 40
0.35
  0
CIRCLE
  5
687
  8
0
 62
    40
 10
1493.610836727068
 20
1507.374262099732
 30
0.0
 40
0.35
  0
CIRCLE
  5
688
  8
0
 62
    40
 10
1498.690836727068
 20
1507.374262099732
 30
0.0
 40
0.35
  0
CIRCLE
  5
689
  8
0
 62
    40
 10
1503.770836727067
 20
1507.374262099732
 30
0.0
 40
0.35
  0
CIRCLE
  5
68A
  8
0
 62
    40
 10
1508.850836727067
 20
1507.374262099732
 30
0.0
 40
0.35
  0
CIRCLE
  5
68B
  8
0
 62
    40
 10
1488.530836727068
 20
1431.494262099732
 30
0.0
 40
0.35
  0
CIRCLE
  5
68C
  8
0
 62
    40
 10
1493.610836727068
 20
1431.494262099732
 30
0.0
 40
0.35
  0
CIRCLE
  5
68D
  8
0
 62
    40
 10
1498.690836727068
 20
1431.494262099732
 30
0.0
 40
0.35
  0
CIRCLE
  5
68E
  8
0
 62
    40
 10
1503.770836727067
 20
1431.494262099732
 30
0.0
 40
0.35
  0
CIRCLE
  5
68F
  8
0
 62
    40
 10
1508.850836727067
 20
1431.494262099732
 30
0.0
 40
0.35
  0
CIRCLE
  5
690
  8
0
 10
1491.190836727068
 20
1563.974262099732
 30
0.0
 40
1.5
  0
CIRCLE
  5
691
  8
0
 10
1506.190836727068
 20
1563.974262099732
 30
0.0
 40
1.5
  0
CIRCLE
  5
692
  8
0
 10
1506.190836727068
 20
1533.974262099732
 30
0.0
 40
1.5
  0
CIRCLE
  5
693
  8
0
 10
1491.190836727068
 20
1533.974262099732
 30
0.0
 40
1.5
  0
POLYLINE
  5
694
  8
0
 66
     1
 10
0.0
 20
0.0
 30
0.0
 70
     1
  0
VERTEX
  5
8DE
  8
0
 10
1529.890836727068
 20
1593.174262099732
 30
0.0
  0
VERTEX
  5
8DF
  8
0
 10
1592.290836727068
 20
1593.174262099732
 30
0.0
  0
VERTEX
  5
8E0
  8
0
 10
1592.290836727068
 20
1503.174262099732
 30
0.0
  0
VERTEX
  5
8E1
  8
0
 10
1529.890836727068
 20
1503.174262099732
 30
0.0
  0
SEQEND
  5
8EE
  8
0
  0
POLYLINE
  5
695
  8
0
 66
     1
 10
0.0
 20
0.0
 30
0.0
 70
     1
  0
VERTEX
  5
8E2
  8
0
 10
1545.930836727068
 20
1591.974262099732
 30
0.0
  0
VERTEX
  5
8E3
  8
0
 10
1575.930836727068
 20
1591.974262099732
 30
0.0
  0
VERTEX
  5
8E4
  8
0
 10
1575.930836727068
 20
1428.974262099732
 30
0.0
  0
VERTEX
  5
8E5
  8
0
 10
1545.930836727068
 20
1428.974262099732
 30
0.0
  0
SEQEND
  5
8EF
  8
0
  0
CIRCLE
  5
696
  8
0
 62
    40
 10
1550.930836727068
 20
1588.974262099732
 30
0.0
 40
0.35
  0
CIRCLE
  5
697
  8
0
 62
    40
 10
1556.010836727068
 20
1588.974262099732
 30
0.0
 40
0.35
  0
CIRCLE
  5
698
  8
0
 62
    40
 10
1561.090836727068
 20
1588.974262099732
 30
0.0
 40
0.35
  0
CIRCLE
  5
699
  8
0
 62
    40
 10
1566.170836727068
 20
1588.974262099732
 30
0.0
 40
0.35
  0
CIRCLE
  5
69A
  8
0
 62
    40
 10
1571.250836727068
 20
1588.974262099732
 30
0.0
 40
0.35
  0
CIRCLE
  5
69B
  8
0
 62
    40
 10
1550.930836727068
 20
1507.374262099732
 30
0.0
 40
0.35
  0
CIRCLE
  5
69C
  8
0
 62
    40
 10
1556.010836727068
 20
1507.374262099732
 30
0.0
 40
0.35
  0
CIRCLE
  5
69D
  8
0
 62
    40
 10
1561.090836727068
 20
1507.374262099732
 30
0.0
 40
0.35
  0
CIRCLE
  5
69E
  8
0
 62
    40
 10
1566.170836727068
 20
1507.374262099732
 30
0.0
 40
0.35
  0
CIRCLE
  5
69F
  8
0
 62
    40
 10
1571.250836727068
 20
1507.374262099732
 30
0.0
 40
0.35
  0
CIRCLE
  5
6A0
  8
0
 62
    40
 10
1550.930836727068
 20
1431.494262099732
 30
0.0
 40
0.35
  0
CIRCLE
  5
6A1
  8
0
 62
    40
 10
1556.010836727068
 20
1431.494262099732
 30
0.0
 40
0.35
  0
CIRCLE
  5
6A2
  8
0
 62
    40
 10
1561.090836727068
 20
1431.494262099732
 30
0.0
 40
0.35
  0
CIRCLE
  5
6A3
  8
0
 62
    40
 10
1566.170836727068
 20
1431.494262099732
 30
0.0
 40
0.35
  0
CIRCLE
  5
6A4
  8
0
 62
    40
 10
1571.250836727068
 20
1431.494262099732
 30
0.0
 40
0.35
  0
CIRCLE
  5
6A5
  8
0
 10
1553.590836727068
 20
1563.974262099732
 30
0.0
 40
1.5
  0
CIRCLE
  5
6A6
  8
0
 10
1568.590836727068
 20
1563.974262099732
 30
0.0
 40
1.5
  0
CIRCLE
  5
6A7
  8
0
 10
1568.590836727068
 20
1533.974262099732
 30
0.0
 40
1.5
  0
CIRCLE
  5
6A8
  8
0
 10
1553.590836727068
 20
1533.974262099732
 30
0.0
 40
1.5
  0
DIMENSION
  5
6AA
  8
DEFPOINTS
  2
*D31
 10
1467.490836727068
 20
1597.711453696039
 30
0.0
 11
1457.490836727068
 21
1599.612886165343
 31
0.0
 70
    32
 13
1447.490836727068
 23
1593.174262099732
 33
0.0
 14
1467.490836727068
 24
1593.174262099732
 34
0.0
  0
CIRCLE
  5
6C9
  8
0
 10
1378.138078917129
 20
1677.517986423468
 30
0.0
 40
1.5
  0
CIRCLE
  5
6CA
  8
0
 10
1378.138078917129
 20
1647.517986423468
 30
0.0
 40
1.5
  0
CIRCLE
  5
6CB
  8
0
 10
1538.138078917129
 20
1647.517986423468
 30
0.0
 40
1.5
  0
CIRCLE
  5
6CC
  8
0
 10
1538.138078917129
 20
1677.517986423468
 30
0.0
 40
1.5
  0
DIMENSION
  5
6CD
  8
DEFPOINTS
  2
*D32
 10
1538.138078917129
 20
1720.493465230055
 30
0.0
 11
1458.138078917129
 21
1722.394897699359
 31
0.0
 70
    32
 13
1378.138078917129
 23
1677.517986423468
 33
0.0
 14
1538.138078917129
 24
1677.517986423468
 34
0.0
  0
DIMENSION
  5
6E5
  8
DEFPOINTS
  2
*D33
 10
1328.138078917129
 20
1720.486688025045
 30
0.0
 11
1353.138078917129
 21
1722.388120494349
 31
0.0
 70
    32
 13
1378.138078917129
 23
1677.517986423468
 33
0.0
 14
1328.138078917129
 24
1672.517986423468
 34
0.0
  0
DIMENSION
  5
6FD
  8
DEFPOINTS
  2
*D34
 10
1320.320728353717
 20
1647.517986423469
 30
0.0
 11
1318.418443224112
 21
1662.517986423469
 31
0.0
 70
    32
 13
1378.138078917129
 23
1677.517986423468
 33
0.0
 14
1378.138078917129
 24
1647.517986423468
 34
0.0
 50
90.0
  0
DIMENSION
  5
78D
  8
DEFPOINTS
  2
*D35
 10
1208.025575194335
 20
1542.517986423469
 30
0.0
 11
1206.12329006473
 21
1624.017986423469
 31
0.0
 70
    32
 13
1245.350692785279
 23
1705.517986423469
 33
0.0
 14
1245.350692785279
 24
1542.517986423469
 34
0.0
 50
90.0
  0
DIMENSION
  5
7C1
  8
DEFPOINTS
  2
*D36
 10
1320.346355047829
 20
1692.517986423469
 30
0.0
 11
1318.444922578525
 21
1685.017986423469
 31
0.0
 70
    32
 13
1378.138078917129
 23
1677.517986423468
 33
0.0
 14
1378.138078917129
 24
1692.517986423468
 34
0.0
 50
90.0
  0
DIMENSION
  5
851
  8
DEFPOINTS
  2
*D37
 10
1588.138078917129
 20
1729.77111518175
 30
0.0
 11
1458.138078917129
 21
1729.77111518175
 31
0.0
 70
   160
 13
1328.138078917129
 23
1692.517986423468
 33
0.0
 14
1588.138078917129
 24
1692.517986423468
 34
0.0
  0
DIMENSION
  5
871
  8
DEFPOINTS
  2
*D38
 10
1376.725611496754
 20
1677.013074761517
 30
0.0
 11
1389.673493041144
 21
1681.641525864196
 31
0.0
 70
   163
 15
1379.550546337506
 25
1678.022898085421
 35
0.0
 40
0.0
  0
CIRCLE
  5
890
  8
0
 62
    40
 10
1250.35069278528
 20
1702.517986423469
 30
0.0
 40
0.35
  0
DIMENSION
  5
899
  8
DEFPOINTS
  2
*D39
 10
1306.530565294178
 20
1607.517986423469
 30
0.0
 11
1304.629132824874
 21
1650.017986423469
 31
0.0
 70
    32
 13
1328.138078917129
 23
1692.517986423468
 33
0.0
 14
1328.138078917129
 24
1607.517986423468
 34
0.0
 50
90.0
  0
ENDSEC
  0
EOF
